<svg xmlns="http://www.w3.org/2000/svg" viewBox="0 0 300 300" fill="none">
  <rect width="300" height="300" rx="12" fill="#f0f4f8"/>
  <rect x="70" y="40" width="160" height="220" rx="4" fill="white" stroke="#bcccdc" stroke-width="2"/>
  <!-- Shelves -->
  <line x1="70" y1="100" x2="230" y2="100" stroke="#bcccdc" stroke-width="1.5"/>
  <line x1="70" y1="150" x2="230" y2="150" stroke="#bcccdc" stroke-width="1.5"/>
  <line x1="70" y1="200" x2="230" y2="200" stroke="#bcccdc" stroke-width="1.5"/>
  <!-- Products on shelves (rectangles) -->
  <rect x="85" y="60" width="25" height="38" rx="3" fill="#bae3ff" stroke="#0967d2" stroke-width="1"/>
  <rect x="115" y="65" width="25" height="33" rx="3" fill="#c1eac5" stroke="#3f9142" stroke-width="1"/>
  <rect x="145" y="58" width="25" height="40" rx="3" fill="#fff3c4" stroke="#de911d" stroke-width="1"/>
  <rect x="175" y="63" width="25" height="35" rx="3" fill="#ffbdbd" stroke="#d64545" stroke-width="1"/>
  <rect x="85" y="110" width="25" height="38" rx="3" fill="#c1eac5" stroke="#3f9142" stroke-width="1"/>
  <rect x="115" y="115" width="25" height="33" rx="3" fill="#bae3ff" stroke="#0967d2" stroke-width="1"/>
  <rect x="145" y="108" width="25" height="40" rx="3" fill="#ffbdbd" stroke="#d64545" stroke-width="1"/>
  <rect x="175" y="113" width="25" height="35" rx="3" fill="#fff3c4" stroke="#de911d" stroke-width="1"/>
  <rect x="85" y="160" width="25" height="38" rx="3" fill="#fff3c4" stroke="#de911d" stroke-width="1"/>
  <rect x="115" y="165" width="25" height="33" rx="3" fill="#ffbdbd" stroke="#d64545" stroke-width="1"/>
  <rect x="145" y="158" width="25" height="40" rx="3" fill="#c1eac5" stroke="#3f9142" stroke-width="1"/>
  <rect x="175" y="163" width="25" height="35" rx="3" fill="#bae3ff" stroke="#0967d2" stroke-width="1"/>
  <!-- Label -->
  <rect x="100" y="215" width="100" height="20" rx="3" fill="#e3f9e5" stroke="#3f9142" stroke-width="1"/>
  <text x="150" y="228" font-size="9" fill="#3f9142" text-anchor="middle" font-weight="600">PRODOTTI</text>
</svg>
